<svg width="567" height="184" viewBox="0 0 567 184" fill="none" xmlns="http://www.w3.org/2000/svg">
<path d="M48.5401 43.8187H8.8818V8.29152H106.582L55.3563 127.679H99.3522V162.174H0L48.5401 44.0253V43.8187Z" fill="#111827"/>
<path d="M155.121 7.88811V162.184H117.528V7.88811H155.121Z" fill="#111827"/>
<path d="M170.822 6.43578H175.779C178.258 6.43578 180.943 6.43578 183.628 6.43578H191.271C193.749 6.43578 195.402 6.43578 196.434 6.43578C202.424 6.43578 208.415 6.64235 214.405 7.26201C220.395 7.88167 226.178 8.70787 231.342 10.1537C236.712 11.5996 241.876 13.6652 246.42 16.1438C250.965 18.6224 255.096 21.9273 258.4 25.8518C261.912 29.7763 264.39 34.5271 266.456 40.3106C268.315 45.8875 269.348 52.4972 269.348 60.1397C269.348 69.8477 267.695 77.6967 264.597 84.3064C261.292 90.7096 257.161 95.8734 251.584 100.005C246.214 104.136 239.811 107.234 232.581 109.299C225.558 111.365 217.916 112.811 209.86 113.844V162.59H170.822V7.05545V6.43578ZM210.893 76.0443C213.578 76.0443 216.057 75.8377 217.916 75.0115C219.981 74.1853 221.634 72.946 222.873 71.5001C224.319 69.8477 225.352 68.1953 225.972 65.9232C226.591 63.8577 227.004 61.5856 227.004 59.1069C227.004 56.6283 227.004 54.5627 226.385 52.4972C225.972 50.2251 225.352 48.3661 224.319 46.7137C223.493 44.8547 222.047 43.6154 220.395 42.5826C218.742 41.5499 216.677 40.9302 214.198 40.9302C214.198 40.9302 213.372 40.9302 212.546 40.9302H210.893V75.6312V76.0443Z" fill="#111827"/>
<path fill-rule="evenodd" clip-rule="evenodd" d="M564.898 40.3075L564.798 40.3181C564.765 40.3188 564.731 40.3204 564.697 40.3231L564.898 40.3075ZM564.798 40.3181C565.745 40.2982 566.357 41.0583 566.032 41.8913C562.627 50.0962 545.069 84.2665 484.428 112.794C483.255 113.303 483.601 115.157 484.807 115.064L535.756 115.289C536.777 115.419 537.476 116.619 536.721 117.304C525.603 130.287 458.24 202.384 359.051 179.571C319.944 170.485 292.884 134.344 292.726 90.6821C292.569 47.0201 318.862 13.4259 363.188 6.43394C413.291 -1.63319 497.294 -0.00168543 510.666 0.423455C511.47 0.361099 512.153 1.35291 511.599 2.02282C508.739 6.84199 498.385 21.8552 470.305 42.8412C469.533 43.319 469.863 44.9651 470.868 44.8872C480.601 45.3849 513.136 45.7829 564.798 40.3181ZM416.391 66.5977C416.391 66.5977 417.501 66.7827 417.872 67.3376C418.057 67.8924 418.057 68.4473 417.872 69.0022L389.19 120.42C388.45 121.899 387.34 122.454 385.86 122.454H374.572C374.572 122.454 373.277 122.454 372.722 121.899C372.167 121.345 371.982 120.975 371.797 120.42L366.801 94.8959C366.801 94.8959 366.616 94.3411 366.061 94.3411C365.505 94.3411 365.32 94.3411 365.32 94.711L350.702 120.605C349.962 121.899 348.667 122.639 347.372 122.639H336.084C336.084 122.639 334.789 122.639 334.419 122.084C333.864 121.714 333.679 121.16 333.494 120.605L323.687 69.1871C323.687 69.1871 323.687 68.0774 324.242 67.5225C324.797 66.9677 325.352 66.7827 325.907 66.7827H339.23C339.23 66.7827 340.525 66.7827 340.895 67.3376C341.006 67.5031 341.116 67.6522 341.222 67.7947L341.222 67.7948C341.47 68.1297 341.691 68.428 341.82 68.8172L347.002 94.8959C347.002 94.8959 347.187 95.4508 347.742 95.4508C348.297 95.4508 348.482 95.4508 348.667 95.0809L363.285 68.6322C364.025 67.3376 365.135 66.5977 366.616 66.5977H375.868C375.868 66.5977 377.163 66.5977 377.718 67.1526C378.273 67.5225 378.458 68.0774 378.643 68.6322L383.639 94.711C383.639 94.711 384.009 95.2658 384.379 95.4508C384.749 95.6357 385.12 95.4508 385.12 95.0809L399.923 68.6322C400.663 67.3376 401.773 66.5977 403.253 66.5977H416.391ZM477.083 93.7794L479.304 81.0175L479.489 80.8325C480.229 76.7635 479.304 73.2494 476.898 70.475C474.493 67.7007 471.162 66.221 467.091 66.221H426.568C425.642 66.221 424.902 66.591 424.162 67.1458C423.422 67.7007 422.867 69.3653 422.867 69.3653L413.8 119.303C413.615 120.228 413.8 120.968 414.355 121.523C414.91 122.078 416.39 122.448 416.39 122.448H427.123C428.048 122.448 428.788 122.078 429.528 121.523C430.268 120.968 430.824 119.303 430.824 119.303L432.674 108.946C432.674 108.576 433.414 108.391 433.414 108.391H459.32C463.576 108.391 467.276 106.911 470.792 104.137C474.123 101.363 476.343 97.8484 477.083 93.7794ZM461.17 81.2024C461.725 81.7573 461.725 83.237 461.725 83.237L460.245 91.5599C460.06 92.2998 459.69 93.0396 458.949 93.5945C458.209 94.1493 456.729 94.3343 456.729 94.3343H435.82C435.264 94.3343 435.264 93.7794 435.264 93.7794L437.485 81.2024C437.67 80.6476 438.225 80.4626 438.225 80.4626H459.32C460.06 80.4626 460.8 80.6476 461.17 81.2024Z" fill="#FF580E"/>
</svg>
